<?xml version="1.0" standalone="no"?>
<!DOCTYPE svg PUBLIC "-//W3C//DTD SVG 20010904//EN"
 "http://www.w3.org/TR/2001/REC-SVG-20010904/DTD/svg10.dtd">
<svg version="1.0" xmlns="http://www.w3.org/2000/svg"
 width="619.000000pt" height="474.000000pt" viewBox="0 0 619.000000 474.000000"
 preserveAspectRatio="xMidYMid meet">

<g transform="translate(0.000000,474.000000) scale(0.100000,-0.100000)"
fill="#000000" stroke="none">
<path d="M4094 4730 c-89 -12 -161 -35 -341 -111 -301 -126 -393 -145 -628
-127 -203 15 -319 7 -435 -31 -233 -75 -434 -252 -532 -468 -51 -114 -68 -200
-68 -354 0 -158 11 -250 47 -402 l25 -109 -38 -40 c-56 -57 -160 -122 -304
-191 -69 -33 -126 -61 -128 -63 -8 -6 94 -197 152 -284 200 -299 482 -526 820
-660 80 -32 291 -90 326 -90 34 0 144 177 201 324 l27 71 54 6 c196 22 198 22
198 7 0 -8 -9 -23 -20 -33 -41 -37 -13 -67 40 -45 47 19 80 65 80 110 0 59
-23 70 -145 70 -112 0 -175 8 -175 22 0 5 14 17 31 26 17 9 71 43 121 75 91
58 123 64 98 17 -27 -51 25 -70 59 -21 28 39 36 83 21 112 -27 51 -57 51 -169
0 -142 -64 -129 -73 -128 79 1 114 3 130 16 124 39 -15 318 -16 419 0 118 18
278 69 379 120 145 73 323 222 323 269 0 38 -24 61 -64 61 l-36 0 -31 96 c-18
52 -33 97 -35 99 -1 1 -36 -23 -77 -54 -41 -32 -78 -58 -82 -59 -4 0 -25 44
-47 99 -22 55 -42 102 -44 104 -3 3 -42 -32 -88 -78 l-83 -82 -23 88 c-12 48
-25 91 -29 95 -3 4 -44 -22 -91 -57 -47 -36 -88 -65 -91 -65 -4 0 -15 30 -24
68 -10 37 -21 73 -25 80 -4 8 -26 -5 -70 -43 -76 -64 -65 -71 -146 87 l-55
108 40 0 40 0 22 -97 c12 -54 25 -101 28 -105 4 -4 40 31 81 79 l75 86 19 -64
c10 -35 20 -66 22 -67 1 -2 60 42 129 98 70 56 130 98 135 94 4 -5 19 -36 33
-69 14 -32 29 -60 33 -62 5 -1 26 19 46 45 21 26 60 72 87 102 l49 55 45 -98
c25 -53 48 -97 51 -97 3 0 32 53 64 117 l59 117 38 -97 c20 -53 40 -97 44 -97
4 0 23 17 43 38 88 92 131 179 154 317 7 44 18 107 25 140 14 79 4 219 -22
297 -74 220 -287 349 -525 318z m124 -282 c28 -28 2 -88 -38 -88 -40 0 -66 60
-38 88 7 7 24 12 38 12 14 0 31 -5 38 -12z m-998 -320 l33 -62 43 48 c40 46
43 47 53 28 17 -33 13 -51 -18 -83 -62 -62 -185 -20 -221 76 -9 25 -8 31 6 42
10 7 30 13 45 13 22 0 31 -10 59 -62z"/>
<path d="M1917 1474 c-4 -4 -7 -20 -7 -36 l0 -28 -85 0 -85 0 0 -75 0 -75 255
0 255 0 0 75 0 75 -84 0 -85 0 -3 33 -3 32 -75 3 c-42 1 -79 0 -83 -4z"/>
<path d="M50 1365 l0 -75 135 0 135 0 0 -39 c0 -81 -91 -153 -211 -167 l-59
-7 0 -70 0 -70 78 5 c94 6 181 38 233 85 l39 35 37 -32 c61 -54 167 -90 266
-90 l57 0 0 68 0 68 -74 11 c-127 18 -206 84 -206 173 l0 30 140 0 140 0 0 75
0 75 -355 0 -355 0 0 -75z"/>
<path d="M1030 1313 c0 -154 -12 -186 -80 -220 -24 -13 -57 -23 -72 -23 l-28
0 0 -76 0 -76 53 7 c72 10 149 40 177 70 l22 24 37 -29 c45 -37 104 -57 172
-62 l54 -3 3 73 3 72 -32 0 c-46 0 -111 34 -132 69 -14 24 -17 54 -17 165 l0
136 -80 0 -80 0 0 -127z"/>
<path d="M1460 1180 l0 -261 78 3 77 3 3 258 2 257 -80 0 -80 0 0 -260z"/>
<path d="M2310 1005 l0 -435 80 0 80 0 0 435 0 435 -80 0 -80 0 0 -435z"/>
<path d="M2740 1138 c0 -269 -2 -307 -18 -337 -23 -47 -61 -72 -116 -78 l-46
-6 0 -75 0 -75 50 6 c78 9 127 28 169 63 l38 33 23 -24 c31 -33 109 -64 180
-72 l60 -6 0 77 0 76 -35 0 c-20 0 -54 9 -75 20 -69 35 -70 41 -70 390 l0 310
-80 0 -80 0 0 -302z"/>
<path d="M3110 1005 l0 -435 80 0 80 0 0 195 0 195 55 0 55 0 0 75 0 75 -55 0
-55 0 0 165 0 165 -80 0 -80 0 0 -435z"/>
<path d="M3680 1005 l0 -435 245 0 245 0 0 80 0 80 -160 0 -160 0 0 100 0 100
160 0 160 0 0 75 0 75 -160 0 -160 0 0 105 0 105 160 0 160 0 0 75 0 75 -245
0 -245 0 0 -435z"/>
<path d="M4280 1005 l0 -435 80 0 80 0 0 435 0 435 -80 0 -80 0 0 -435z"/>
<path d="M4540 1365 l0 -75 160 0 160 0 0 -105 0 -105 -160 0 -160 0 0 -255 0
-255 245 0 245 0 0 80 0 80 -165 0 -165 0 0 100 0 100 163 2 162 3 3 253 2
252 -245 0 -245 0 0 -75z"/>
<path d="M5080 1005 l0 -435 80 0 80 0 0 195 0 195 55 0 55 0 0 75 0 75 -55 0
-55 0 0 165 0 165 -80 0 -80 0 0 -435z"/>
<path d="M5440 1130 l0 -310 135 0 135 0 0 -50 0 -49 -157 -3 -158 -3 -3 -72
-3 -73 396 0 395 0 0 75 0 75 -155 0 -155 0 0 50 0 49 133 3 132 3 3 73 3 72
-271 0 -270 0 0 235 0 235 -80 0 -80 0 0 -310z"/>
<path d="M1903 1240 c-93 -22 -145 -95 -146 -202 0 -35 5 -80 12 -100 15 -44
68 -93 110 -103 30 -6 31 -8 31 -61 l0 -54 -105 0 -106 0 3 -72 3 -73 288 -3
287 -2 0 75 0 75 -100 0 -100 0 0 54 c0 50 2 54 27 61 78 19 123 90 123 195 0
115 -53 188 -150 209 -57 12 -129 13 -177 1z m149 -157 c22 -20 24 -76 2 -97
-18 -18 -85 -21 -115 -6 -24 13 -26 81 -3 104 21 21 92 21 116 -1z"/>
<path d="M0 825 l0 -75 160 0 160 0 0 -100 0 -100 80 0 80 0 0 100 0 100 160
0 161 0 -3 73 -3 72 -397 3 -398 2 0 -75z"/>
<path d="M862 818 l3 -73 298 -3 297 -2 0 -106 0 -105 78 3 77 3 3 178 2 177
-380 0 -381 0 3 -72z"/>
<path d="M90 250 c0 -16 7 -20 35 -20 l35 0 0 -110 0 -110 25 0 25 0 0 110 0
110 40 0 c33 0 40 3 40 20 0 19 -7 20 -100 20 -93 0 -100 -1 -100 -20z"/>
<path d="M1025 240 c9 -16 29 -53 45 -80 22 -38 30 -63 30 -100 0 -47 2 -50
25 -50 23 0 25 3 25 51 0 41 8 66 40 124 22 40 40 75 40 79 0 3 -11 6 -24 6
-18 0 -30 -12 -53 -56 l-30 -55 -29 55 c-25 47 -33 56 -57 56 -27 0 -27 0 -12
-30z"/>
<path d="M1980 140 l0 -130 30 0 c29 0 30 1 30 50 0 45 2 50 23 50 18 0 27
-10 42 -50 17 -43 23 -50 47 -50 l28 0 -24 53 c-23 52 -23 54 -5 76 27 33 24
77 -6 106 -21 22 -33 25 -95 25 l-70 0 0 -130z m128 78 c29 -29 2 -68 -47 -68
-18 0 -21 6 -21 40 0 37 2 40 28 40 15 0 33 -5 40 -12z"/>
<path d="M2970 153 c-23 -65 -45 -124 -47 -131 -3 -7 4 -12 20 -12 20 0 28 7
37 35 11 33 14 35 55 35 41 0 44 -2 55 -35 9 -27 17 -35 36 -35 13 0 24 3 24
7 0 4 -21 62 -46 130 -41 107 -50 123 -69 123 -19 0 -28 -15 -65 -117z m89
-25 c1 -5 -10 -8 -24 -8 -29 0 -29 2 -13 47 l12 34 12 -33 c7 -18 13 -36 13
-40z"/>
<path d="M3900 141 l0 -131 25 0 c24 0 24 2 27 86 l3 87 48 -87 c44 -77 52
-86 78 -86 l29 0 0 130 0 130 -25 0 c-25 0 -25 -1 -25 -87 l0 -88 -48 85 c-43
77 -51 85 -80 88 l-32 3 0 -130z"/>
<path d="M4880 140 l0 -130 25 0 c25 0 25 1 25 88 l0 87 48 -85 c43 -77 51
-85 80 -88 l32 -3 0 130 0 131 -25 0 c-25 0 -25 -1 -25 -92 0 -83 -2 -90 -13
-68 -72 137 -89 160 -118 160 l-29 0 0 -130z"/>
<path d="M5883 246 c-26 -23 -28 -29 -28 -105 0 -74 2 -83 27 -108 23 -22 36
-27 79 -27 46 0 55 4 80 32 26 29 29 39 29 103 0 65 -2 73 -29 100 -40 39
-115 42 -158 5z m117 -36 c15 -15 20 -33 20 -72 0 -60 -19 -88 -61 -88 -38 0
-59 33 -59 92 0 53 24 88 60 88 11 0 29 -9 40 -20z"/>
</g>
</svg>
